<?xml version="1.0" standalone="no"?>
<!DOCTYPE svg PUBLIC "-//W3C//DTD SVG 20010904//EN"
 "http://www.w3.org/TR/2001/REC-SVG-20010904/DTD/svg10.dtd">
<svg version="1.0" xmlns="http://www.w3.org/2000/svg"
 width="200.000000pt" height="200.000000pt" viewBox="0 0 200.000000 200.000000"
 preserveAspectRatio="xMidYMid meet">

<g transform="translate(0.000000,200.000000) scale(0.100000,-0.100000)"
fill="#000000" stroke="none">
<path d="M820 1983 c-110 -19 -239 -68 -342 -129 -112 -66 -266 -220 -332
-332 -180 -304 -193 -663 -33 -977 48 -94 93 -156 180 -243 122 -124 256 -204
436 -259 79 -25 101 -27 261 -27 153 -1 186 2 260 22 174 48 324 135 451 261
126 127 213 277 261 451 20 74 23 107 22 260 0 160 -2 182 -27 261 -55 180
-135 314 -259 436 -87 87 -149 132 -243 180 -200 102 -417 135 -635 96z m252
-220 c65 -65 42 -173 -43 -207 -118 -48 -222 84 -151 192 40 61 140 68 194 15z
m-364 -268 c228 -20 333 -19 611 5 268 23 281 21 281 -54 0 -47 -28 -57 -227
-82 -103 -13 -194 -24 -200 -24 -10 0 -13 -46 -13 -198 l0 -198 94 -314 c103
-344 104 -356 44 -381 -26 -10 -35 -10 -57 2 -22 13 -40 54 -127 309 -101 293
-102 295 -131 298 l-29 3 -83 -273 c-46 -150 -89 -287 -96 -305 -24 -58 -107
-56 -131 2 -10 27 -2 64 72 345 l84 315 0 196 0 196 -185 25 c-201 28 -225 37
-225 89 0 43 42 71 99 64 25 -3 124 -12 219 -20z"/>
</g>
</svg>
