<?xml version="1.0" standalone="no"?>
<!DOCTYPE svg PUBLIC "-//W3C//DTD SVG 20010904//EN"
 "http://www.w3.org/TR/2001/REC-SVG-20010904/DTD/svg10.dtd">
<svg version="1.0" xmlns="http://www.w3.org/2000/svg"
 width="723.000000pt" height="720.000000pt" viewBox="0 0 723.000000 720.000000"
 preserveAspectRatio="xMidYMid meet">

<g transform="translate(0.000000,720.000000) scale(0.100000,-0.100000)"
fill="#000000" stroke="none">
<path d="M3500 6914 c-868 -48 -1624 -389 -2227 -1005 -525 -536 -839 -1209
-924 -1979 -15 -139 -15 -506 0 -650 85 -805 412 -1486 982 -2047 546 -537
1242 -861 2009 -933 148 -14 484 -14 625 0 1110 109 2084 758 2612 1741 473
878 514 1969 109 2894 -173 395 -407 728 -733 1045 -487 475 -1084 778 -1748
889 -206 35 -524 55 -705 45z m520 -469 c354 -51 622 -135 932 -292 1005 -507
1629 -1590 1560 -2709 -30 -487 -163 -920 -408 -1325 -416 -690 -1118 -1181
-1904 -1333 -209 -41 -313 -50 -555 -50 -238 1 -372 13 -574 55 -859 176
-1597 746 -1991 1538 -137 276 -221 544 -271 872 -32 208 -33 589 0 799 93
613 353 1146 771 1583 480 502 1120 809 1825 876 135 13 486 5 615 -14z"/>
<path d="M3405 6114 c-594 -60 -1131 -318 -1552 -745 -386 -392 -619 -861
-705 -1419 -8 -54 -13 -182 -13 -355 0 -293 9 -373 65 -603 178 -725 685
-1346 1365 -1671 227 -108 435 -172 710 -218 126 -20 485 -28 627 -14 469 49
890 215 1273 500 127 94 389 356 483 483 257 344 410 700 485 1128 18 108 21
162 21 400 0 238 -3 292 -21 400 -65 371 -191 695 -383 983 -113 169 -176 247
-308 381 -390 396 -868 643 -1417 732 -96 16 -530 28 -630 18z m305 -564 c218
-41 368 -245 331 -452 -23 -134 -107 -244 -229 -301 -60 -28 -77 -31 -163 -32
-90 0 -99 2 -171 38 -246 121 -302 439 -111 631 72 72 163 113 279 125 6 0 35
-4 64 -9z m317 -915 c236 -31 281 -44 818 -234 255 -91 381 -140 404 -159 105
-85 108 -246 6 -329 -44 -37 -112 -58 -159 -50 -19 3 -227 65 -463 137 -235
73 -439 132 -452 132 -42 1 -61 -35 -61 -116 0 -116 19 -379 40 -552 46 -381
109 -641 276 -1145 129 -391 139 -434 110 -503 -20 -48 -75 -107 -121 -127
-50 -23 -143 -24 -193 -3 -46 19 -88 58 -112 104 -10 20 -98 272 -195 560
-262 783 -260 775 -276 775 -9 0 -25 -34 -46 -95 -258 -767 -413 -1221 -426
-1246 -36 -70 -115 -114 -204 -114 -132 1 -233 100 -233 228 0 35 30 139 110
378 216 644 288 994 320 1534 15 265 14 277 -15 306 -15 15 -33 23 -43 20 -9
-2 -216 -66 -460 -140 -244 -75 -455 -136 -469 -136 -44 0 -100 22 -139 53
-101 84 -98 244 7 329 41 34 752 290 934 338 97 25 253 53 355 63 112 12 578
6 687 -8z"/>
</g>
</svg>
